<svg width="39" height="43" viewBox="0 0 39 43" fill="none" xmlns="http://www.w3.org/2000/svg">
<path d="M19.2142 21.2663C18.8873 20.2118 19.4087 19.1604 20.214 18.7608C21.0898 18.3262 22.4471 18.3941 23.255 19.9518C22.9625 18.7734 23.6268 17.8118 24.3985 17.467C25.3201 17.0547 26.6294 17.3325 27.3237 18.7156C27.2656 18.3363 27.2295 18.0055 27.3094 17.6783C27.5145 16.8401 28.0448 16.2927 28.8736 16.1056C29.8089 15.8949 30.575 16.2511 31.1082 17.0378C31.6248 17.7997 32.0956 18.5935 32.5818 19.3757C33.1195 20.2402 33.6653 21.0996 34.1107 22.0184C34.6486 23.1276 35.0553 24.2788 35.3642 25.4716C35.899 27.5385 35.8912 29.6281 35.7382 31.7256C35.6723 32.6283 35.2357 33.3504 34.4801 33.8351C32.9976 34.7862 31.5028 35.7197 29.9974 36.6349C29.5569 36.9025 29.0387 36.9938 28.521 37.0379C27.2123 37.1496 25.9285 36.9676 24.6522 36.6852C22.1016 36.1206 19.7365 35.0739 17.4424 33.8469C16.3391 33.2567 15.2432 32.6526 14.1841 31.9841C12.9138 31.1821 12.8591 29.3582 14.0945 28.5367C14.7967 28.0702 15.5453 28.0698 16.2805 28.4718C17.3061 29.032 18.3173 29.619 19.3352 30.1937C19.4473 30.2571 19.5668 30.3236 19.6832 30.2078C19.8326 30.0592 19.7113 29.9291 19.6353 29.8078C18.8187 28.5074 17.9979 27.2098 17.1793 25.9106C15.1992 22.7673 13.2178 19.6245 11.2401 16.48C10.5423 15.3704 10.8433 14.1101 11.9544 13.4481C12.8095 12.9389 14.0663 13.2089 14.6484 14.0744C15.3 15.0439 15.9079 16.0426 16.5326 17.0299C17.3893 18.3841 18.2437 19.74 19.0993 21.095C19.1299 21.1445 19.1642 21.1926 19.2142 21.2663Z" fill="#FCEE21"/>
<path d="M13.4267 10.0759C13.3583 9.91824 13.3726 9.74085 13.4131 9.56398C13.6581 8.48927 13.9012 7.4143 14.1508 6.34041C14.2579 5.87941 14.6652 5.61317 15.1205 5.69168C15.5308 5.76228 15.8429 6.17398 15.7745 6.62464C15.6981 7.12458 15.5741 7.61705 15.4676 8.1121C15.3389 8.70928 15.2107 9.30631 15.0739 9.90156C14.9501 10.4396 14.589 10.7119 14.1015 10.6496C13.7838 10.6096 13.5423 10.408 13.4267 10.0759Z" fill="#FCEE21"/>
<path d="M8.23921 13.7859C8.35004 14.1166 8.26966 14.3885 8.06828 14.6357C7.84267 14.9126 7.53983 14.9578 7.21716 14.8865C6.39953 14.7054 5.58552 14.5103 4.7696 14.3206C4.51467 14.2613 4.25786 14.2089 4.00576 14.1401C3.51055 14.0052 3.23847 13.589 3.33582 13.1296C3.42691 12.6971 3.86471 12.4127 4.35249 12.5169C5.4562 12.7527 6.55556 13.01 7.65557 13.2638C7.94837 13.331 8.13224 13.5301 8.23921 13.7859Z" fill="#FCEE21"/>
<path d="M18.035 13.0981C17.6127 13.2403 17.1872 13.0718 17.003 12.7171C16.7913 12.3094 16.8727 11.8923 17.2466 11.6525C18.2042 11.0389 19.1663 10.4313 20.1368 9.8384C20.5641 9.57751 21.0341 9.70502 21.2898 10.1095C21.5252 10.482 21.4279 10.9582 21.0227 11.2225C20.0763 11.8395 19.1178 12.4383 18.1626 13.0426C18.1124 13.074 18.0536 13.0903 18.035 13.0981Z" fill="#FCEE21"/>
<path d="M10.717 10.2634C10.8591 10.6713 10.7038 11.0927 10.3755 11.2644C9.98465 11.4685 9.5252 11.3787 9.29913 11.0285C8.66635 10.0484 8.03947 9.06485 7.41989 8.07643C7.1749 7.68569 7.2976 7.19668 7.67475 6.95883C8.06593 6.71237 8.53179 6.80425 8.79125 7.20523C9.41701 8.17206 10.0311 9.14619 10.6482 10.1179C10.6843 10.1739 10.7062 10.2391 10.717 10.2634Z" fill="#FCEE21"/>
<path d="M4.54243 20.3846C4.41333 20.022 4.54819 19.6451 4.91967 19.4038C5.60531 18.9593 6.29821 18.5262 6.98836 18.0892C7.23298 17.9341 7.47658 17.7774 7.72498 17.6277C8.13752 17.379 8.61795 17.4915 8.88237 17.8926C9.13212 18.272 9.0265 18.7502 8.61118 19.0208C7.95806 19.447 7.29578 19.8592 6.63727 20.2768C6.34879 20.4597 6.06075 20.644 5.76993 20.8229C5.30615 21.1082 4.72556 20.8991 4.54243 20.3846Z" fill="#FCEE21"/>
</svg>
